<?xml version="1.0" standalone="no"?>
<!DOCTYPE svg PUBLIC "-//W3C//DTD SVG 20010904//EN"
 "http://www.w3.org/TR/2001/REC-SVG-20010904/DTD/svg10.dtd">
<svg version="1.0" xmlns="http://www.w3.org/2000/svg"
 width="50.000000pt" height="50.000000pt" viewBox="0 0 50.000000 50.000000"
 preserveAspectRatio="xMidYMid meet">

<g transform="translate(0.000000,50.000000) scale(0.100000,-0.100000)"
fill="#392418" stroke="none">
<path d="M172 457 c-90 -34 -146 -115 -146 -212 0 -80 24 -127 62 -123 26 3
27 5 30 75 3 76 15 93 53 73 15 -9 19 -22 19 -70 0 -94 19 -70 22 28 l3 87 33
3 32 3 0 -76 c0 -57 3 -76 13 -73 8 3 14 36 17 99 l5 94 30 0 30 0 5 -74 5
-75 38 36 c20 19 37 44 37 54 0 37 -45 98 -93 128 -55 34 -140 44 -195 23z"/>
<path d="M420 204 c-52 -52 -155 -107 -235 -125 -31 -7 -54 -17 -52 -22 6 -20
81 -39 135 -33 102 9 189 88 200 181 2 25 3 45 0 45 -2 0 -24 -20 -48 -46z"/>
</g>
</svg>
