<?xml version="1.0" standalone="no"?>
<!DOCTYPE svg PUBLIC "-//W3C//DTD SVG 20010904//EN"
 "http://www.w3.org/TR/2001/REC-SVG-20010904/DTD/svg10.dtd">
<svg version="1.0" xmlns="http://www.w3.org/2000/svg"
 width="50.000000pt" height="50.000000pt" viewBox="0 0 50.000000 50.000000"
 preserveAspectRatio="xMidYMid meet">

<g transform="translate(0.000000,50.000000) scale(0.100000,-0.100000)"
fill="#392418" stroke="none">
<path d="M152 453 c-86 -42 -126 -114 -120 -217 4 -82 30 -130 95 -174 34 -24
47 -27 123 -27 77 0 89 3 126 28 24 16 53 49 69 78 62 115 18 258 -98 313 -46
21 -151 21 -195 -1z m204 -140 c-3 -16 -10 -57 -16 -93 -16 -97 -14 -95 -61
-69 -65 38 -67 45 -24 89 21 22 36 42 34 45 -3 2 -28 -11 -57 -30 -28 -19 -62
-35 -74 -35 -25 0 -56 16 -47 24 10 11 215 94 232 95 15 1 18 -4 13 -26z"/>
</g>
</svg>
