<?xml version="1.0" standalone="no"?>
<!DOCTYPE svg PUBLIC "-//W3C//DTD SVG 20010904//EN"
 "http://www.w3.org/TR/2001/REC-SVG-20010904/DTD/svg10.dtd">
<svg version="1.0" xmlns="http://www.w3.org/2000/svg"
 width="50.000000pt" height="50.000000pt" viewBox="0 0 50.000000 50.000000"
 preserveAspectRatio="xMidYMid meet">

<g transform="translate(0.000000,50.000000) scale(0.100000,-0.100000)"
fill="#392418" stroke="none">
<path d="M155 451 c-80 -37 -125 -111 -125 -206 0 -69 25 -120 81 -168 96 -83
256 -62 324 42 75 115 42 261 -74 325 -60 32 -145 35 -206 7z m190 -91 c4 -6
16 -8 28 -4 20 6 21 5 7 -11 -9 -11 -10 -16 -2 -11 6 4 12 3 12 -3 0 -5 -4
-12 -9 -15 -4 -3 -11 -24 -15 -46 -7 -47 -56 -107 -103 -126 -35 -15 -96 -17
-127 -5 -22 8 -15 15 27 25 l28 7 -28 24 c-18 16 -23 24 -13 25 10 0 7 5 -8
16 -22 15 -30 44 -12 44 6 0 3 11 -6 26 -24 36 -5 51 29 24 15 -12 43 -24 62
-27 31 -5 35 -3 35 15 0 37 77 71 95 42z"/>
</g>
</svg>
